<svg xmlns="http://www.w3.org/2000/svg" xmlns:xlink="http://www.w3.org/1999/xlink" viewBox="0 0 140.03 140.03"><defs><style>.cls-1{fill:none;}.cls-2{clip-path:url(#clip-path);}.cls-3{fill:#007bc6;}.cls-4{fill:#81c272;}</style><clipPath id="clip-path" transform="translate(0 0)"><circle class="cls-1" cx="70.01" cy="70.01" r="70"/></clipPath></defs><g id="레이어_2" data-name="레이어 2"><g id="레이어_1-2" data-name="레이어 1"><g id="레이어_2-2" data-name="레이어 2"><g class="cls-2"><circle class="cls-3" cx="70.01" cy="70.01" r="70"/><path class="cls-4" d="M76.59,139A38.5,38.5,0,0,1,84,129.29c4.47-4-4.46-11.41-12.1-13.73s-22.46-6.11-22.46-6.11S41,99.52,38.07,94.53s2.48-6.42,8.44-10.84,5-8.48,7.27-12,14.06-7.36,14.06-7.36-4.46-13.44-6-12.45-7,8.93-11.41,5S43.53,46.93,49,42,37.58,31.55,40,28.57s1-10.42-3.48-10.91a16.59,16.59,0,0,1-8-3.64A84.73,84.73,0,0,1,17.91,40c-8.12,12.9-5.29,29,0,42.3S31.13,98.53,31.13,98.53s7.8,8.43,8.21,13.11c.33,3.86-1.62,8.72,10.11,16.16s10.92,12,10.92,12S73,139.85,76.59,139Z" transform="translate(0 0)"/><path class="cls-4" d="M132.68,101.26s-.92-17.39-3.59-16-2.68,10.25-12.93,8.91-9.36-10.25-10.7-14.71.9-11.14,4.46-14.71,0-14.71,0-14.71-8.47-8.91-6.24-12.48,1.78-12-2.67-17.38S82.2,5.86,65.71,10.92,53.3,2,53.3,2h0a70.09,70.09,0,0,1,79.36,99.28Z" transform="translate(0 0)"/></g><path class="cls-4" d="M61.53,32.34a4,4,0,0,1,.72-5.61,4.66,4.66,0,0,1,.77-.47c2.84-1.37,6.73-2.51,9.94-.78,5.8,3.12,8.81,12,8.42,15.15-.2,1.56-1.86,3.35-3.47,4.74a4,4,0,0,1-5.65-.29L72.21,45C69.29,41.72,64.47,36.22,61.53,32.34Z" transform="translate(0 0)"/></g></g></g></svg>