<svg xmlns="http://www.w3.org/2000/svg" viewBox="0 0 138.04 101.93"><defs><style>.cls-1{fill:#444;}.cls-2{fill:#ff7a6b;}.cls-3{fill:#ff978a;}.cls-4{fill:#2ca0b0;}.cls-5{fill:#ffdf75;}.cls-6{fill:#fff;}</style></defs><g id="레이어_2" data-name="레이어 2"><g id="레이어_1-2" data-name="레이어 1"><path class="cls-1" d="M28,82.14h2.42a8.17,8.17,0,0,1,8.17,8.17v2.25a9.38,9.38,0,0,1-9.39,9.37h0a9.38,9.38,0,0,1-9.38-9.38V90.31A8.17,8.17,0,0,1,28,82.14Z"/><path class="cls-1" d="M107.44,82.14h2.68a8,8,0,0,1,8,8v2.37a9.38,9.38,0,0,1-9.38,9.38h0a9.38,9.38,0,0,1-9.38-9.38V90.18a8,8,0,0,1,8-8Z"/><path class="cls-2" d="M7,24.79H19.89a6.55,6.55,0,0,1,6.55,6.55v2a6.55,6.55,0,0,1-6.55,6.55H8.12A8.13,8.13,0,0,1,0,31.77H0a7,7,0,0,1,7-7Z"/><path class="cls-2" d="M129.82,39.93H118a6.43,6.43,0,0,1-6.43-6.43V31.22A6.43,6.43,0,0,1,118,24.79h13a7,7,0,0,1,7,7h0A8.18,8.18,0,0,1,129.86,40Z"/><path class="cls-3" d="M117.4,36.66l-4.51-22.24A18,18,0,0,0,95.25,0H42.75A18,18,0,0,0,25.11,14.42l-4.5,22.24H16.2A11.89,11.89,0,0,0,4.35,48.55V74.09A11.88,11.88,0,0,0,16.2,86H121.77a11.89,11.89,0,0,0,11.89-11.89V48.55a11.89,11.89,0,0,0-11.89-11.89Z"/><path class="cls-4" d="M110.05,36.66H28L32.2,15.85A10.85,10.85,0,0,1,42.76,7.2H95.25a10.86,10.86,0,0,1,10.59,8.65Z"/><circle class="cls-5" cx="27.96" cy="61.68" r="9.3"/><circle class="cls-5" cx="110.05" cy="61.68" r="9.3"/><path class="cls-6" d="M58.37,25.36,75.94,10.75a1.05,1.05,0,0,1,1.49.13h0a1.06,1.06,0,0,1-.14,1.49L59.71,27a1.07,1.07,0,0,1-1.49-.13h0A1.06,1.06,0,0,1,58.37,25.36Z"/><path class="cls-6" d="M59.19,31,73.92,18.72a1.07,1.07,0,0,1,1.49.13h0a1.06,1.06,0,0,1-.14,1.49L60.54,32.59a1.05,1.05,0,0,1-1.49-.13h0A1.05,1.05,0,0,1,59.19,31Z"/></g></g></svg>