<svg xmlns="http://www.w3.org/2000/svg" viewBox="0 0 40.01 41.61"><defs><style>.cls-1{fill:#ffcf61;}.cls-2{fill:#444;}</style></defs><g id="레이어_2" data-name="레이어 2"><polygon class="cls-1" points="26.61 0.09 16.69 6.43 1.58 24.52 20.11 40 36.06 20.91 39.51 11.15 26.61 0.09"/><path class="cls-2" d="M19.45,41.38.36,25.43A1,1,0,0,1,.23,24L16,5.17a.92.92,0,0,1,.35-.27L26.61.09a1,1,0,0,1,1.07.14l12,10a1,1,0,0,1,.32,1L36.8,22a1.13,1.13,0,0,1-.19.36L20.86,41.25A1,1,0,0,1,19.45,41.38Zm-17-16.85L20,39.2l15-17.92,2.93-9.93-11-9.17L17.37,6.62Z"/><path class="cls-2" d="M26.1,14.29a3.88,3.88,0,1,1,5.46-.49A3.88,3.88,0,0,1,26.1,14.29Zm3.69-4.41A1.87,1.87,0,1,0,30,12.52,1.87,1.87,0,0,0,29.79,9.88Z"/><path class="cls-2" d="M11.14,25.3A.51.51,0,0,1,11,25a.5.5,0,0,1,.45-.54l11.9-1.06a.5.5,0,0,1,.55.45.5.5,0,0,1-.46.54l-11.9,1.07A.53.53,0,0,1,11.14,25.3Z"/><path class="cls-2" d="M15.49,22.2a2.38,2.38,0,1,1,3.36-.3A2.38,2.38,0,0,1,15.49,22.2Zm2.41-2.89a1.38,1.38,0,1,0,.18,2A1.38,1.38,0,0,0,17.9,19.31Z"/><path class="cls-2" d="M16.46,30.34a2.39,2.39,0,1,1,3.36-.3A2.39,2.39,0,0,1,16.46,30.34Zm2.42-2.89a1.38,1.38,0,1,0,.17,1.95A1.39,1.39,0,0,0,18.88,27.45Z"/></g></svg>