<svg xmlns="http://www.w3.org/2000/svg" viewBox="0 0 37 38.81"><defs><style>.cls-1{fill:#ffcf61;}.cls-2{fill:#444;}</style></defs><g id="레이어_2" data-name="레이어 2"><polygon class="cls-1" points="7.89 4.39 6.5 10.04 1.19 13.74 3.42 19.5 1.19 25.07 6.5 27.79 7.89 34.14 14.6 32.75 18.5 37.64 22.94 33.72 29.4 33.77 30.65 27.79 35.82 25.07 33.45 19.4 35.82 13.1 30.35 10.87 28.84 4.39 22.94 5.37 18.8 1.04 14.6 6.05 7.89 4.39"/><path class="cls-2" d="M18.5,38.81a.93.93,0,0,1-.66-.27l-4.23-4.09-5.82.82a.94.94,0,0,1-1.07-.78l-1-5.79L.51,26A.94.94,0,0,1,.1,24.69L2.68,19.4.1,14.12a.94.94,0,0,1,.41-1.26L5.7,10.1l1-5.79a1,1,0,0,1,1.07-.78l5.82.83L17.84.27a.94.94,0,0,1,1.32,0l4.23,4.09,5.82-.83a1,1,0,0,1,1.07.78l1,5.79,5.19,2.76a.94.94,0,0,1,.41,1.26L34.32,19.4l2.58,5.29A.94.94,0,0,1,36.49,26L31.3,28.7l-1,5.79a1,1,0,0,1-1.07.78l-5.82-.82-4.23,4.09A.93.93,0,0,1,18.5,38.81Zm-4.56-6.32a1,1,0,0,1,.66.26l3.9,3.77,3.9-3.77a.92.92,0,0,1,.79-.25l5.37.75.94-5.34a1,1,0,0,1,.49-.68l4.79-2.54L32.4,19.82a1,1,0,0,1,0-.84l2.38-4.87L30,11.57a1,1,0,0,1-.49-.68l-.94-5.34-5.37.76a.93.93,0,0,1-.79-.26L18.5,2.28,14.6,6.05a.93.93,0,0,1-.79.26L8.44,5.55,7.5,10.89a1,1,0,0,1-.49.68L2.22,14.11,4.6,19a1,1,0,0,1,0,.84L2.22,24.69,7,27.23a1,1,0,0,1,.49.68l.94,5.34,5.37-.75Z"/><path class="cls-2" d="M13.11,25.9a.73.73,0,0,1-.51-.21.71.71,0,0,1,0-1L24,13.31a.71.71,0,0,1,1,1L13.61,25.69A.7.7,0,0,1,13.11,25.9Z"/><path class="cls-2" d="M14.91,19a3.26,3.26,0,1,1,3.26-3.25A3.26,3.26,0,0,1,14.91,19Zm0-5.07a1.82,1.82,0,1,0,1.82,1.82A1.82,1.82,0,0,0,14.91,13.88Z"/><path class="cls-2" d="M22.94,26.52a3.26,3.26,0,1,1,3.25-3.25A3.26,3.26,0,0,1,22.94,26.52Zm0-5.08a1.83,1.83,0,1,0,1.82,1.83A1.83,1.83,0,0,0,22.94,21.44Z"/></g></svg>