<svg xmlns="http://www.w3.org/2000/svg" viewBox="0 0 151 81.47"><defs><style>.cls-1{fill:#135475;}.cls-2{fill:#7dd5f4;}</style></defs><g id="레이어_2" data-name="레이어 2"><rect class="cls-1" x="20.73" y="1.88" width="106.87" height="74"/><path class="cls-2" d="M146.47,4.53,151,0H0L4.53,4.53,0,9.05l4.53,4.53L0,18.11l4.53,4.52L0,27.16l4.53,4.52L0,36.21l4.53,4.53L0,45.26l4.53,4.53L0,54.32l4.53,4.52L0,63.37,4.53,67.9,0,72.42,4.53,77,0,81.47H151L146.47,77,151,72.42l-4.53-4.52L151,63.37l-4.53-4.53L151,54.32l-4.53-4.53L151,45.26l-4.53-4.52L151,36.21l-4.53-4.53L151,27.16l-4.53-4.53L151,18.11l-4.53-4.53L151,9.05ZM84,36.08l-37,20.81a1.92,1.92,0,0,1-2.21-.23L34,47.34a1.12,1.12,0,0,1,.18-1.83l2.4-1.39a1.13,1.13,0,0,1,1.15,0L44.19,48a1.93,1.93,0,0,0,2.1-.09l9.47-6.7a1.93,1.93,0,0,0-.08-3.2l-9.92-6.38a1.14,1.14,0,0,1,0-1.94l4-2.29a1.91,1.91,0,0,1,1.55-.16l15.56,5A1.91,1.91,0,0,0,68.43,32l9.82-5.67A5.73,5.73,0,0,1,86,28.28,5.66,5.66,0,0,1,84,36.08Zm31.08,38.4a1.49,1.49,0,1,1-3,0V72.7a1.49,1.49,0,1,1,3,0Zm0-7.81a1.49,1.49,0,0,1-3,0V63.05a1.49,1.49,0,1,1,3,0Zm0-9.65a1.49,1.49,0,0,1-3,0V53.4a1.49,1.49,0,1,1,3,0Zm0-9.65a1.49,1.49,0,1,1-3,0V43.75a1.49,1.49,0,0,1,3,0Zm0-9.65a1.49,1.49,0,1,1-3,0V34.1a1.49,1.49,0,0,1,3,0Zm0-9.65a1.49,1.49,0,1,1-3,0V24.46a1.49,1.49,0,1,1,3,0Zm0-9.64a1.49,1.49,0,0,1-3,0V14.81a1.49,1.49,0,1,1,3,0Zm0-9.65a1.49,1.49,0,0,1-3,0V7a1.49,1.49,0,0,1,3,0Z"/></g></svg>