<svg xmlns="http://www.w3.org/2000/svg" xmlns:xlink="http://www.w3.org/1999/xlink" viewBox="0 0 140 140"><defs><style>.cls-1{fill:none;}.cls-2{clip-path:url(#clip-path);}.cls-3{fill:#007bc6;}.cls-4{fill:#81c272;}</style><clipPath id="clip-path"><circle class="cls-1" cx="70" cy="70" r="70" transform="translate(-13.32 123.46) rotate(-77.69)"/></clipPath></defs><g id="레이어_2" data-name="레이어 2"><g class="cls-2"><circle class="cls-3" cx="70" cy="70" r="70" transform="translate(-13.32 123.46) rotate(-77.69)"/><path class="cls-4" d="M76.57,139A38.29,38.29,0,0,1,84,129.27c4.47-4-4.46-11.41-12.1-13.73s-22.46-6.11-22.46-6.11S41,99.5,38.05,94.51s2.48-6.42,8.44-10.84,5-8.48,7.27-12,14.06-7.36,14.06-7.36-4.46-13.44-5.95-12.45-6.95,8.93-11.41,5S43.51,46.91,49,42,37.56,31.53,40,28.55s1-10.42-3.48-10.91a16.63,16.63,0,0,1-8-3.64A84.77,84.77,0,0,1,17.89,40c-8.12,12.9-5.29,29,0,42.3S31.11,98.51,31.11,98.51s7.8,8.43,8.21,13.11c.33,3.86-1.62,8.72,10.11,16.16s10.92,12.05,10.92,12.05S73,139.83,76.57,139Z"/><path class="cls-4" d="M132.66,101.24s-.92-17.39-3.59-16-2.68,10.25-12.93,8.91-9.36-10.25-10.7-14.71.9-11.14,4.46-14.71,0-14.71,0-14.71-8.47-8.91-6.24-12.48,1.78-12-2.67-17.38S82.18,5.84,65.69,10.9,53.28,2,53.28,2h0a70.09,70.09,0,0,1,79.36,99.28Z"/></g><path class="cls-4" d="M61.51,32.32A4,4,0,0,1,63,26.24c2.84-1.37,6.73-2.51,9.94-.78,5.8,3.12,8.81,12,8.42,15.15-.2,1.56-1.86,3.35-3.47,4.74A4,4,0,0,1,72.19,45C69.27,41.7,64.45,36.2,61.51,32.32Z"/></g></svg>