<svg xmlns="http://www.w3.org/2000/svg" viewBox="0 0 18 18"><defs><style>.cls-1{fill:#4267b2;}.cls-2{fill:#fff;fill-rule:evenodd;}</style></defs><g id="레이어_2" data-name="레이어 2"><g id="레이어_1-2" data-name="레이어 1"><circle class="cls-1" cx="9" cy="9" r="9"/><path class="cls-2" d="M12.7,2.25H10.78A3.37,3.37,0,0,0,7.23,5.89V7.21H5.31a.31.31,0,0,0-.31.3V10a.31.31,0,0,0,.31.3H7.23v5.2a.3.3,0,0,0,.3.3h2.52a.29.29,0,0,0,.3-.3h0v-5.2H12.6a.31.31,0,0,0,.31-.3h0V7.51a.32.32,0,0,0-.31-.3H10.35V6.15c0-.69.16-1,1.05-1h1.29A.31.31,0,0,0,13,4.81h0V2.55A.31.31,0,0,0,12.7,2.25Z"/></g></g></svg>